<mxfile host="65bd71144e">
    <diagram id="cSx2rAaaYHSNlt3S_o5b" name="Page-1">
        <mxGraphModel dx="203" dy="137" grid="1" gridSize="10" guides="1" tooltips="1" connect="1" arrows="1" fold="1" page="1" pageScale="1" pageWidth="827" pageHeight="1169" math="0" shadow="0">
            <root>
                <mxCell id="0"/>
                <mxCell id="1" parent="0"/>
                <mxCell id="0cOvibwge1xp_EZN1MW7-1" value="&amp;nbsp;Trust" style="rounded=0;whiteSpace=wrap;html=1;dashed=1;align=left;verticalAlign=top;fontStyle=1;fillColor=#647687;strokeColor=#314354;fontSize=14;strokeWidth=2;fontColor=#ffffff;" parent="1" vertex="1">
                    <mxGeometry x="440" y="190" width="200" height="320" as="geometry"/>
                </mxCell>
                <mxCell id="4" value="Epic" style="rounded=1;whiteSpace=wrap;html=1;fillColor=#FFFFFF;fontColor=#000000;align=left;fontSize=15;" vertex="1" parent="1">
                    <mxGeometry x="470" y="210" width="140" height="170" as="geometry"/>
                </mxCell>
                <mxCell id="0cOvibwge1xp_EZN1MW7-2" style="edgeStyle=orthogonalEdgeStyle;rounded=0;orthogonalLoop=1;jettySize=auto;html=1;entryX=0.5;entryY=0;entryDx=0;entryDy=0;strokeWidth=2;fontSize=14;" parent="1" source="0cOvibwge1xp_EZN1MW7-4" target="0cOvibwge1xp_EZN1MW7-6" edge="1">
                    <mxGeometry relative="1" as="geometry"/>
                </mxCell>
                <mxCell id="0cOvibwge1xp_EZN1MW7-3" value="HL7v2" style="edgeLabel;html=1;align=center;verticalAlign=middle;resizable=0;points=[];fontSize=14;" parent="0cOvibwge1xp_EZN1MW7-2" vertex="1" connectable="0">
                    <mxGeometry x="-0.2" y="1" relative="1" as="geometry">
                        <mxPoint as="offset"/>
                    </mxGeometry>
                </mxCell>
                <mxCell id="5" style="edgeStyle=orthogonalEdgeStyle;html=1;exitX=0.25;exitY=1;exitDx=0;exitDy=0;entryX=0.5;entryY=0;entryDx=0;entryDy=0;fontSize=15;fontColor=#000000;strokeWidth=2;" edge="1" parent="1" source="0cOvibwge1xp_EZN1MW7-4" target="0cOvibwge1xp_EZN1MW7-12">
                    <mxGeometry relative="1" as="geometry">
                        <Array as="points">
                            <mxPoint x="510" y="400"/>
                            <mxPoint x="410" y="400"/>
                            <mxPoint x="410" y="540"/>
                            <mxPoint x="540" y="540"/>
                        </Array>
                    </mxGeometry>
                </mxCell>
                <mxCell id="0cOvibwge1xp_EZN1MW7-4" value="EPR" style="rounded=1;whiteSpace=wrap;html=1;strokeWidth=2;fontSize=14;" parent="1" vertex="1">
                    <mxGeometry x="480" y="310" width="120" height="60" as="geometry"/>
                </mxCell>
                <mxCell id="0cOvibwge1xp_EZN1MW7-6" value="Trust Integration Engine (TIE)" style="rounded=1;whiteSpace=wrap;html=1;strokeWidth=2;fontSize=14;" parent="1" vertex="1">
                    <mxGeometry x="480" y="430" width="120" height="60" as="geometry"/>
                </mxCell>
                <mxCell id="0cOvibwge1xp_EZN1MW7-7" style="rounded=0;orthogonalLoop=1;jettySize=auto;html=1;entryX=1;entryY=0.5;entryDx=0;entryDy=0;endArrow=none;endFill=0;exitX=0;exitY=0.5;exitDx=0;exitDy=0;dashed=1;fontSize=14;" parent="1" source="0cOvibwge1xp_EZN1MW7-9" target="4" edge="1">
                    <mxGeometry relative="1" as="geometry"/>
                </mxCell>
                <mxCell id="0cOvibwge1xp_EZN1MW7-9" value="Produced by EPIC&lt;div&gt;Deployed on premise&lt;/div&gt;&lt;div&gt;Managed by trust&lt;/div&gt;" style="rounded=0;whiteSpace=wrap;html=1;fillColor=#f5f5f5;fontColor=#333333;strokeColor=#666666;fontSize=14;" parent="1" vertex="1">
                    <mxGeometry x="660" y="260" width="140" height="70" as="geometry"/>
                </mxCell>
                <mxCell id="0cOvibwge1xp_EZN1MW7-10" style="rounded=0;orthogonalLoop=1;jettySize=auto;html=1;entryX=1;entryY=0.5;entryDx=0;entryDy=0;endArrow=none;endFill=0;exitX=0;exitY=0.5;exitDx=0;exitDy=0;dashed=1;fontSize=14;" parent="1" source="0cOvibwge1xp_EZN1MW7-11" target="0cOvibwge1xp_EZN1MW7-6" edge="1">
                    <mxGeometry relative="1" as="geometry"/>
                </mxCell>
                <mxCell id="0cOvibwge1xp_EZN1MW7-11" value="Produced by 3rd party&lt;div&gt;Procured by trust&lt;br&gt;&lt;div&gt;Configured by trust&lt;/div&gt;&lt;/div&gt;" style="rounded=0;whiteSpace=wrap;html=1;fillColor=#f5f5f5;fontColor=#333333;strokeColor=#666666;fontSize=14;" parent="1" vertex="1">
                    <mxGeometry x="660" y="430" width="140" height="60" as="geometry"/>
                </mxCell>
                <mxCell id="0cOvibwge1xp_EZN1MW7-12" value="Pointers /&amp;nbsp;&lt;div&gt;Record Locators&lt;/div&gt;" style="rounded=1;whiteSpace=wrap;html=1;strokeWidth=2;fontSize=14;" parent="1" vertex="1">
                    <mxGeometry x="480" y="570" width="120" height="60" as="geometry"/>
                </mxCell>
                <mxCell id="0cOvibwge1xp_EZN1MW7-13" style="edgeStyle=orthogonalEdgeStyle;rounded=1;orthogonalLoop=1;jettySize=auto;html=1;entryX=0;entryY=0.5;entryDx=0;entryDy=0;exitX=0.5;exitY=1;exitDx=0;exitDy=0;curved=0;strokeWidth=2;fontSize=14;" parent="1" source="0cOvibwge1xp_EZN1MW7-17" target="0cOvibwge1xp_EZN1MW7-12" edge="1">
                    <mxGeometry relative="1" as="geometry"/>
                </mxCell>
                <mxCell id="0cOvibwge1xp_EZN1MW7-14" value="Look-up" style="edgeLabel;html=1;align=center;verticalAlign=middle;resizable=0;points=[];fontSize=14;" parent="0cOvibwge1xp_EZN1MW7-13" vertex="1" connectable="0">
                    <mxGeometry x="0.0694" relative="1" as="geometry">
                        <mxPoint as="offset"/>
                    </mxGeometry>
                </mxCell>
                <mxCell id="0cOvibwge1xp_EZN1MW7-15" style="edgeStyle=orthogonalEdgeStyle;rounded=1;orthogonalLoop=1;jettySize=auto;html=1;entryX=0;entryY=0.5;entryDx=0;entryDy=0;exitX=0.5;exitY=0;exitDx=0;exitDy=0;curved=0;strokeWidth=2;fontSize=14;" parent="1" source="0cOvibwge1xp_EZN1MW7-17" target="0cOvibwge1xp_EZN1MW7-4" edge="1">
                    <mxGeometry relative="1" as="geometry"/>
                </mxCell>
                <mxCell id="0cOvibwge1xp_EZN1MW7-16" value="Retrieve&lt;div&gt;(and&amp;nbsp;&lt;span style=&quot;background-color: initial;&quot;&gt;&amp;nbsp;manage)&lt;/span&gt;&lt;/div&gt;" style="edgeLabel;html=1;align=center;verticalAlign=middle;resizable=0;points=[];labelBackgroundColor=none;fontSize=14;" parent="0cOvibwge1xp_EZN1MW7-15" vertex="1" connectable="0">
                    <mxGeometry x="-0.108" relative="1" as="geometry">
                        <mxPoint x="-14" y="30" as="offset"/>
                    </mxGeometry>
                </mxCell>
                <mxCell id="0cOvibwge1xp_EZN1MW7-17" value="Wayfinder&amp;nbsp;&lt;div&gt;Aggregator&lt;/div&gt;" style="rounded=1;whiteSpace=wrap;html=1;strokeWidth=2;fontSize=14;" parent="1" vertex="1">
                    <mxGeometry x="210" y="430" width="120" height="60" as="geometry"/>
                </mxCell>
                <mxCell id="0cOvibwge1xp_EZN1MW7-18" style="edgeStyle=orthogonalEdgeStyle;rounded=0;orthogonalLoop=1;jettySize=auto;html=1;entryX=0;entryY=0.5;entryDx=0;entryDy=0;strokeWidth=2;fontSize=14;" parent="1" source="0cOvibwge1xp_EZN1MW7-22" target="0cOvibwge1xp_EZN1MW7-23" edge="1">
                    <mxGeometry relative="1" as="geometry"/>
                </mxCell>
                <mxCell id="0cOvibwge1xp_EZN1MW7-19" style="edgeStyle=orthogonalEdgeStyle;rounded=1;orthogonalLoop=1;jettySize=auto;html=1;entryX=0;entryY=0.5;entryDx=0;entryDy=0;exitX=0.5;exitY=1;exitDx=0;exitDy=0;curved=0;strokeWidth=2;fontSize=14;" parent="1" source="0cOvibwge1xp_EZN1MW7-22" target="0cOvibwge1xp_EZN1MW7-17" edge="1">
                    <mxGeometry relative="1" as="geometry"/>
                </mxCell>
                <mxCell id="0cOvibwge1xp_EZN1MW7-20" style="edgeStyle=orthogonalEdgeStyle;rounded=1;orthogonalLoop=1;jettySize=auto;html=1;exitX=0.75;exitY=0;exitDx=0;exitDy=0;entryX=0.25;entryY=0;entryDx=0;entryDy=0;curved=0;strokeWidth=2;fontSize=14;" parent="1" source="0cOvibwge1xp_EZN1MW7-22" target="0cOvibwge1xp_EZN1MW7-29" edge="1">
                    <mxGeometry relative="1" as="geometry">
                        <Array as="points">
                            <mxPoint x="100" y="150"/>
                            <mxPoint x="510" y="150"/>
                        </Array>
                    </mxGeometry>
                </mxCell>
                <mxCell id="0cOvibwge1xp_EZN1MW7-21" value="jump-off" style="edgeLabel;html=1;align=center;verticalAlign=middle;resizable=0;points=[];fontSize=14;" parent="0cOvibwge1xp_EZN1MW7-20" vertex="1" connectable="0">
                    <mxGeometry x="0.0589" y="3" relative="1" as="geometry">
                        <mxPoint as="offset"/>
                    </mxGeometry>
                </mxCell>
                <mxCell id="0cOvibwge1xp_EZN1MW7-22" value="NHS App" style="rounded=1;whiteSpace=wrap;html=1;strokeWidth=2;fontSize=14;" parent="1" vertex="1">
                    <mxGeometry x="10" y="220" width="120" height="60" as="geometry"/>
                </mxCell>
                <mxCell id="0cOvibwge1xp_EZN1MW7-23" value="NHS login" style="rounded=1;whiteSpace=wrap;html=1;strokeWidth=2;fontSize=14;" parent="1" vertex="1">
                    <mxGeometry x="230" y="220" width="120" height="60" as="geometry"/>
                </mxCell>
                <mxCell id="0cOvibwge1xp_EZN1MW7-24" style="edgeStyle=orthogonalEdgeStyle;rounded=1;orthogonalLoop=1;jettySize=auto;html=1;curved=0;fontSize=14;" parent="1" source="0cOvibwge1xp_EZN1MW7-26" target="0cOvibwge1xp_EZN1MW7-22" edge="1">
                    <mxGeometry relative="1" as="geometry"/>
                </mxCell>
                <mxCell id="0cOvibwge1xp_EZN1MW7-25" style="edgeStyle=orthogonalEdgeStyle;rounded=1;orthogonalLoop=1;jettySize=auto;html=1;curved=0;strokeWidth=2;fontSize=14;" parent="1" source="0cOvibwge1xp_EZN1MW7-26" target="0cOvibwge1xp_EZN1MW7-29" edge="1">
                    <mxGeometry relative="1" as="geometry"/>
                </mxCell>
                <mxCell id="0cOvibwge1xp_EZN1MW7-26" value="Patient" style="shape=umlActor;verticalLabelPosition=bottom;verticalAlign=top;html=1;outlineConnect=0;fontSize=14;strokeWidth=2;" parent="1" vertex="1">
                    <mxGeometry x="280" y="20" width="30" height="60" as="geometry"/>
                </mxCell>
                <mxCell id="0cOvibwge1xp_EZN1MW7-27" value="" style="edgeStyle=orthogonalEdgeStyle;rounded=0;orthogonalLoop=1;jettySize=auto;html=1;strokeWidth=2;fontSize=14;" parent="1" source="0cOvibwge1xp_EZN1MW7-29" target="0cOvibwge1xp_EZN1MW7-4" edge="1">
                    <mxGeometry relative="1" as="geometry"/>
                </mxCell>
                <mxCell id="0cOvibwge1xp_EZN1MW7-28" style="edgeStyle=orthogonalEdgeStyle;rounded=0;orthogonalLoop=1;jettySize=auto;html=1;entryX=1;entryY=0.5;entryDx=0;entryDy=0;strokeWidth=2;fontSize=14;startArrow=none;" parent="1" source="0cOvibwge1xp_EZN1MW7-30" target="0cOvibwge1xp_EZN1MW7-23" edge="1">
                    <mxGeometry relative="1" as="geometry"/>
                </mxCell>
                <mxCell id="0cOvibwge1xp_EZN1MW7-29" value="MyChart&lt;div&gt;(PFS)&lt;/div&gt;" style="rounded=1;whiteSpace=wrap;html=1;strokeWidth=2;fontSize=14;" parent="1" vertex="1">
                    <mxGeometry x="480" y="220" width="120" height="60" as="geometry"/>
                </mxCell>
                <mxCell id="0cOvibwge1xp_EZN1MW7-31" value="2" style="ellipse;whiteSpace=wrap;html=1;aspect=fixed;fillColor=#008a00;strokeColor=#005700;fontSize=14;fontColor=#ffffff;fontStyle=1" parent="1" vertex="1">
                    <mxGeometry x="400" y="471" width="20" height="20" as="geometry"/>
                </mxCell>
                <mxCell id="0cOvibwge1xp_EZN1MW7-32" value="3" style="ellipse;whiteSpace=wrap;html=1;aspect=fixed;fillColor=#008a00;strokeColor=#005700;fontSize=14;fontStyle=1;fontColor=#ffffff;" parent="1" vertex="1">
                    <mxGeometry x="350" y="330" width="20" height="20" as="geometry"/>
                </mxCell>
                <mxCell id="0cOvibwge1xp_EZN1MW7-33" value="4" style="ellipse;whiteSpace=wrap;html=1;aspect=fixed;fillColor=#008a00;strokeColor=#005700;fontSize=14;fontColor=#ffffff;fontStyle=1" parent="1" vertex="1">
                    <mxGeometry x="190" y="140" width="20" height="20" as="geometry"/>
                </mxCell>
                <mxCell id="6" value="Pointer&lt;br&gt;Management" style="edgeLabel;html=1;align=center;verticalAlign=middle;resizable=0;points=[];labelBackgroundColor=none;fontSize=14;" vertex="1" connectable="0" parent="1">
                    <mxGeometry x="459.99952380952374" y="540" as="geometry"/>
                </mxCell>
                <mxCell id="7" value="" style="edgeStyle=orthogonalEdgeStyle;rounded=0;orthogonalLoop=1;jettySize=auto;html=1;entryX=1;entryY=0.5;entryDx=0;entryDy=0;strokeWidth=2;fontSize=14;endArrow=none;" edge="1" parent="1" source="0cOvibwge1xp_EZN1MW7-29" target="0cOvibwge1xp_EZN1MW7-30">
                    <mxGeometry relative="1" as="geometry">
                        <mxPoint x="480" y="250" as="sourcePoint"/>
                        <mxPoint x="350" y="250" as="targetPoint"/>
                    </mxGeometry>
                </mxCell>
                <mxCell id="0cOvibwge1xp_EZN1MW7-30" value="1" style="ellipse;whiteSpace=wrap;html=1;aspect=fixed;fillColor=#008a00;strokeColor=#005700;fontSize=14;fontStyle=1;fontColor=#ffffff;" parent="1" vertex="1">
                    <mxGeometry x="394" y="240" width="20" height="20" as="geometry"/>
                </mxCell>
            </root>
        </mxGraphModel>
    </diagram>
</mxfile>